<?xml version="1.0" encoding="UTF-8"?>
<!DOCTYPE svg PUBLIC "-//W3C//DTD SVG 1.1//EN" "http://www.w3.org/Graphics/SVG/1.1/DTD/svg11.dtd">
<svg xmlns="http://www.w3.org/2000/svg" version="1.1" width="4000px" height="4000px" style="shape-rendering:geometricPrecision; text-rendering:geometricPrecision; image-rendering:optimizeQuality; fill-rule:evenodd; clip-rule:evenodd" xmlns:xlink="http://www.w3.org/1999/xlink">
<g><path style="opacity:0.988" fill="#000000" d="M 744.5,-0.5 C 817.167,-0.5 889.833,-0.5 962.5,-0.5C 962.5,311.5 962.5,623.5 962.5,935.5C 889.833,935.5 817.167,935.5 744.5,935.5C 744.5,623.5 744.5,311.5 744.5,-0.5 Z"/></g>
<g><path style="opacity:0.987" fill="#000000" d="M 462.5,0.5 C 520.167,0.5 577.833,0.5 635.5,0.5C 635.5,72.8333 635.5,145.167 635.5,217.5C 506.833,217.5 378.167,217.5 249.5,217.5C 249.5,263.5 249.5,309.5 249.5,355.5C 353.833,355.5 458.167,355.5 562.5,355.5C 562.5,428.167 562.5,500.833 562.5,573.5C 458.167,573.5 353.833,573.5 249.5,573.5C 249.5,621.5 249.5,669.5 249.5,717.5C 378.167,717.5 506.833,717.5 635.5,717.5C 635.5,790.167 635.5,862.833 635.5,935.5C 434.264,935.833 233.097,935.499 32,934.5C 31.3333,624.167 31.3333,313.833 32,3.5C 175.458,1.83499 318.958,0.834993 462.5,0.5 Z"/></g>
<g><path style="opacity:0.985" fill="#000000" d="M 1628.5,0.5 C 1701.17,0.5 1773.83,0.5 1846.5,0.5C 1846.5,312.167 1846.5,623.833 1846.5,935.5C 1767.5,935.833 1688.5,935.5 1609.5,934.5C 1508.91,755.639 1408.07,576.973 1307,398.5C 1306.5,577.5 1306.33,756.5 1306.5,935.5C 1233.26,935.831 1160.1,935.498 1087,934.5C 1086.5,624.167 1086.33,313.834 1086.5,3.5C 1166.17,3.33334 1245.83,3.5 1325.5,4C 1426.03,182.52 1526.53,361.02 1627,539.5C 1627.17,359.764 1627.67,180.097 1628.5,0.5 Z"/></g>
<g><path style="opacity:0.981" fill="#000000" d="M 2666.5,1911.5 C 2665.48,1909.8 2663.98,1908.47 2662,1907.5C 2646.1,1903.98 2630.6,1899.15 2615.5,1893C 2606.29,1887.41 2599.79,1879.58 2596,1869.5C 2588.91,1809.8 2581.75,1750.14 2574.5,1690.5C 2574.75,1684.92 2574.08,1679.58 2572.5,1674.5C 2570.88,1662.21 2569.54,1649.88 2568.5,1637.5C 2568.8,1633.21 2568.14,1629.21 2566.5,1625.5C 2563.24,1599.07 2560.24,1572.74 2557.5,1546.5C 2557.8,1542.21 2557.14,1538.21 2555.5,1534.5C 2554.46,1521.45 2553.12,1508.45 2551.5,1495.5C 2551.56,1490.27 2550.89,1485.27 2549.5,1480.5C 2547.5,1459.8 2545.16,1439.13 2542.5,1418.5C 2542.71,1411.18 2541.71,1404.18 2539.5,1397.5C 2539.5,1393.47 2539.16,1389.47 2538.5,1385.5C 2538.56,1377.89 2537.56,1370.56 2535.5,1363.5C 2535.26,1359.16 2534.93,1354.82 2534.5,1350.5C 2534.64,1345.59 2533.97,1340.92 2532.5,1336.5C 2532.78,1330.58 2532.12,1324.92 2530.5,1319.5C 2528.76,1307.23 2527.42,1294.89 2526.5,1282.5C 2526.72,1277.9 2526.05,1273.57 2524.5,1269.5C 2516.4,1197.5 2508.07,1125.5 2499.5,1053.5C 2499.64,1048.59 2498.97,1043.92 2497.5,1039.5C 2495.2,1021.53 2493.2,1003.53 2491.5,985.5C 2490.89,975.6 2489.56,965.934 2487.5,956.5C 2486.99,950.147 2486.33,943.813 2485.5,937.5C 2485.64,932.586 2484.97,927.919 2483.5,923.5C 2483.5,922.167 2483.5,920.833 2483.5,919.5C 2483.32,912.251 2482.32,905.251 2480.5,898.5C 2478.33,883.172 2476.67,867.838 2475.5,852.5C 2475.14,844.283 2474.14,836.283 2472.5,828.5C 2472.08,819.723 2471.08,811.056 2469.5,802.5C 2469.56,797.269 2468.89,792.269 2467.5,787.5C 2464.88,757.748 2461.55,728.081 2457.5,698.5C 2457.64,693.586 2456.97,688.919 2455.5,684.5C 2455.81,680.958 2455.48,677.625 2454.5,674.5C 2454.39,666.583 2453.39,658.916 2451.5,651.5C 2451.7,642.888 2450.7,634.554 2448.5,626.5C 2448.5,625.167 2448.5,623.833 2448.5,622.5C 2448.32,615.251 2447.32,608.251 2445.5,601.5C 2444.84,597.534 2444.5,593.534 2444.5,589.5C 2444.72,584.9 2444.05,580.567 2442.5,576.5C 2441.5,569.87 2440.84,563.203 2440.5,556.5C 2440.24,549.264 2439.24,542.264 2437.5,535.5C 2436.42,528.544 2435.76,521.544 2435.5,514.5C 2435.47,508.949 2434.81,503.616 2433.5,498.5C 2433.8,494.21 2433.14,490.21 2431.5,486.5C 2430.83,486.5 2430.5,486.167 2430.5,485.5C 2419.12,383.271 2407.12,281.105 2394.5,179C 2395.59,156.995 2403.43,137.828 2418,121.5C 2430.77,107.713 2445.27,96.213 2461.5,87C 2511.36,61.045 2564.03,43.045 2619.5,33C 2719.83,12.967 2821.16,2.30032 2923.5,1C 3052.02,-2.29319 3179.36,8.37348 3305.5,33C 3361.39,43.1166 3414.39,61.4499 3464.5,88C 3490.05,102.551 3509.88,122.717 3524,148.5C 3528.7,160.415 3530.7,172.748 3530,185.5C 3473.17,664.149 3416.5,1142.82 3360,1621.5C 3350.52,1698.82 3341.19,1776.15 3332,1853.5C 3331.67,1864.83 3328.33,1875.16 3322,1884.5C 3318.13,1888.85 3313.63,1892.35 3308.5,1895C 3190.52,1937.27 3068.86,1956.27 2943.5,1952C 2881.3,1950.24 2819.64,1943.57 2758.5,1932C 2727.68,1925.79 2697.01,1918.96 2666.5,1911.5 Z M 2917.5,83.5 C 3026.88,80.9806 3135.54,88.4806 3243.5,106C 3286.55,113.542 3328.88,123.875 3370.5,137C 3393.4,145.283 3415.07,155.95 3435.5,169C 3439.02,172.349 3442.35,175.849 3445.5,179.5C 3441.4,185.227 3436.4,190.06 3430.5,194C 3422.83,199.171 3414.83,203.838 3406.5,208C 3360.75,227.249 3313.42,241.249 3264.5,250C 3060.78,284.299 2857.11,283.965 2653.5,249C 2603.21,239.68 2554.88,224.347 2508.5,203C 2497.24,197.572 2487.57,190.072 2479.5,180.5C 2483.65,174.52 2488.65,169.354 2494.5,165C 2529.04,145.374 2565.7,131.041 2604.5,122C 2707.65,98.4478 2811.98,85.6144 2917.5,83.5 Z M 3277.5,757.5 C 3284.43,689.083 3292.09,620.75 3300.5,552.5C 3303.76,538.772 3300.59,526.772 3291,516.5C 3277.28,504.044 3261.78,494.211 3244.5,487C 3217.96,475.931 3190.62,467.264 3162.5,461C 3054.53,439.975 2945.53,429.808 2835.5,430.5C 2726.89,430.01 2619.23,439.676 2512.5,459.5C 2504.78,402.762 2498.12,345.762 2492.5,288.5C 2554.27,313.358 2618.27,330.192 2684.5,339C 2863.02,365.177 3041.69,366.177 3220.5,342C 3275.54,335.059 3329.54,323.393 3382.5,307C 3399.41,301.461 3415.91,294.961 3432,287.5C 3423.87,360.137 3415.71,432.804 3407.5,505.5C 3407.17,506.833 3406.83,508.167 3406.5,509.5C 3385.47,528.53 3371.31,551.863 3364,579.5C 3350.22,629.666 3355.55,677.666 3380,723.5C 3380.17,725.167 3380.33,726.833 3380.5,728.5C 3378.17,747.815 3376,767.149 3374,786.5C 3347.07,759.581 3314.9,749.914 3277.5,757.5 Z M 3298.5,847.5 C 3304.19,848.012 3309.19,850.179 3313.5,854C 3327.55,868.959 3334.21,886.792 3333.5,907.5C 3334.05,929.045 3326.72,947.212 3311.5,962C 3304.2,967.913 3296.86,967.913 3289.5,962C 3280.36,952.556 3274.19,941.39 3271,928.5C 3265.35,903.776 3269.35,880.776 3283,859.5C 3287.23,854.077 3292.4,850.077 3298.5,847.5 Z M 3243.5,1041.5 C 3274.65,1061.95 3307.49,1064.95 3342,1050.5C 3332.01,1144.88 3321.18,1239.22 3309.5,1333.5C 3282.03,1330.95 3257.69,1338.45 3236.5,1356C 3229.56,1362.69 3222.73,1369.53 3216,1376.5C 3210.89,1384.4 3206.06,1392.4 3201.5,1400.5C 3204.03,1371.7 3207.37,1343.03 3211.5,1314.5C 3239.07,1282.14 3252.4,1244.47 3251.5,1201.5C 3251.2,1173.64 3245.53,1146.98 3234.5,1121.5C 3237.5,1094.83 3240.5,1068.17 3243.5,1041.5 Z M 3298.5,1416.5 C 3299.04,1416.56 3299.38,1416.89 3299.5,1417.5C 3294.34,1456.82 3289.5,1496.15 3285,1535.5C 3270.5,1514.34 3265.17,1491.01 3269,1465.5C 3271.23,1448.2 3278.4,1433.37 3290.5,1421C 3293.1,1419.2 3295.77,1417.7 3298.5,1416.5 Z M 3187.5,1521.5 C 3194.28,1551.57 3208.28,1577.73 3229.5,1600C 3237.95,1607.11 3246.95,1613.44 3256.5,1619C 3262.3,1621.55 3268.3,1623.38 3274.5,1624.5C 3274.33,1629.86 3273.83,1635.19 3273,1640.5C 3239.55,1655.93 3204.72,1667.26 3168.5,1674.5C 3174.77,1623.36 3181.1,1572.36 3187.5,1521.5 Z M 3148.5,1852.5 C 3151.91,1822.51 3155.24,1792.51 3158.5,1762.5C 3193.35,1755.87 3227.69,1747.2 3261.5,1736.5C 3257.99,1766.54 3254.16,1796.54 3250,1826.5C 3216.57,1836.7 3182.73,1845.37 3148.5,1852.5 Z"/></g>
<g><path style="opacity:0.988" fill="#f79319" d="M 3916.5,81.5 C 3943.56,80.8473 3970.39,81.514 3997,83.5C 3997.67,188.5 3997.67,293.5 3997,398.5C 3971.91,399.661 3946.74,399.827 3921.5,399C 3908.79,385.287 3895.12,372.62 3880.5,361C 3828.05,311.55 3775.21,262.384 3722,213.5C 3721.5,274.832 3721.33,336.166 3721.5,397.5C 3693.83,397.5 3666.17,397.5 3638.5,397.5C 3638.5,293.167 3638.5,188.833 3638.5,84.5C 3664.26,84.0185 3689.92,84.5185 3715.5,86C 3782,147.833 3848.5,209.667 3915,271.5C 3915.17,208.096 3915.67,144.763 3916.5,81.5 Z"/></g>
<g><path style="opacity:0.996" fill="#e9cda3" d="M 3300.5,552.5 C 3287.82,571.995 3270.49,585.828 3248.5,594C 3247.75,594.671 3247.41,595.504 3247.5,596.5C 3241.97,570.424 3231.14,546.757 3215,525.5C 3180.25,486.435 3138.75,476.602 3090.5,496C 3060.64,512.523 3040.31,537.023 3029.5,569.5C 3027.39,573.502 3026.06,577.835 3025.5,582.5C 3024.08,584.515 3023.41,586.848 3023.5,589.5C 3020.78,597.479 3019.45,605.812 3019.5,614.5C 3018.29,626.012 3018.29,637.679 3019.5,649.5C 3018.55,648.081 3018.22,646.415 3018.5,644.5C 2982.9,647.706 2947.23,649.706 2911.5,650.5C 2911.5,649.167 2911.5,647.833 2911.5,646.5C 2913.49,612.11 2906.99,579.443 2892,548.5C 2873.37,514.207 2844.87,493.374 2806.5,486C 2766.49,484.087 2734.66,499.253 2711,531.5C 2701.46,544.24 2694.3,558.24 2689.5,573.5C 2686.43,580.778 2684.43,588.445 2683.5,596.5C 2683.5,597.167 2683.5,597.833 2683.5,598.5C 2681.13,605.171 2680.13,612.171 2680.5,619.5C 2679.51,628.318 2679.17,637.318 2679.5,646.5C 2642.47,642.908 2605.47,638.908 2568.5,634.5C 2568.8,637.059 2568.47,639.393 2567.5,641.5C 2567.76,627.47 2567.26,613.47 2566,599.5C 2565.72,598.584 2565.22,597.918 2564.5,597.5C 2558.63,562.752 2542.63,533.752 2516.5,510.5C 2516.84,505.878 2516.18,501.545 2514.5,497.5C 2514.32,490.309 2513.65,483.309 2512.5,476.5C 2512.25,471.493 2511.92,466.493 2511.5,461.5C 2512.34,461.158 2512.67,460.492 2512.5,459.5C 2619.23,439.676 2726.89,430.01 2835.5,430.5C 2945.53,429.808 3054.53,439.975 3162.5,461C 3190.62,467.264 3217.96,475.931 3244.5,487C 3261.78,494.211 3277.28,504.044 3291,516.5C 3300.59,526.772 3303.76,538.772 3300.5,552.5 Z"/></g>
<g><path style="opacity:1" fill="#5e5241" d="M 2511.5,461.5 C 2511.92,466.493 2512.25,471.493 2512.5,476.5C 2510.75,471.552 2510.42,466.552 2511.5,461.5 Z"/></g>
<g><path style="opacity:0.992" fill="#f79319" d="M 3916.5,482.5 C 3943.41,482.172 3970.24,482.505 3997,483.5C 3997.83,568.737 3997.66,653.903 3996.5,739C 3877.17,739.5 3757.83,739.667 3638.5,739.5C 3638.5,708.167 3638.5,676.833 3638.5,645.5C 3730.83,645.5 3823.17,645.5 3915.5,645.5C 3915.17,591.095 3915.5,536.762 3916.5,482.5 Z"/></g>
<g><path style="opacity:0.992" fill="#e9cda3" d="M 2430.5,485.5 C 2430.5,486.167 2430.83,486.5 2431.5,486.5C 2431.2,490.79 2431.86,494.79 2433.5,498.5C 2433.38,504.069 2434.04,509.402 2435.5,514.5C 2435.76,521.544 2436.42,528.544 2437.5,535.5C 2437.55,542.766 2438.55,549.766 2440.5,556.5C 2440.84,563.203 2441.5,569.87 2442.5,576.5C 2442.16,581.122 2442.82,585.455 2444.5,589.5C 2444.5,593.534 2444.84,597.534 2445.5,601.5C 2445.5,602.167 2445.5,602.833 2445.5,603.5C 2422.87,597.438 2402.71,586.771 2385,571.5C 2379.5,565.19 2374.67,558.523 2370.5,551.5C 2368.11,539.401 2370.61,528.401 2378,518.5C 2383.24,512.59 2389.07,507.423 2395.5,503C 2406.94,496.613 2418.61,490.78 2430.5,485.5 Z"/></g>
<g><path style="opacity:1" fill="#010101" d="M 2911.5,646.5 C 2909.97,654.335 2908.64,662.335 2907.5,670.5C 2906.45,673.728 2905.79,677.061 2905.5,680.5C 2903.13,685.941 2901.13,691.608 2899.5,697.5C 2889.03,727.125 2870.37,749.958 2843.5,766C 2796.19,788.588 2754.69,780.755 2719,742.5C 2709.75,731.019 2701.75,718.685 2695,705.5C 2692.98,697.935 2690.48,690.602 2687.5,683.5C 2686.82,676.008 2685.65,668.674 2684,661.5C 2683.72,660.584 2683.22,659.918 2682.5,659.5C 2682.25,654.493 2681.92,649.493 2681.5,644.5C 2681.16,629.103 2681.82,613.77 2683.5,598.5C 2683.5,597.833 2683.5,597.167 2683.5,596.5C 2684.97,595.653 2685.8,594.32 2686,592.5C 2687.77,586.275 2688.94,579.941 2689.5,573.5C 2694.3,558.24 2701.46,544.24 2711,531.5C 2734.66,499.253 2766.49,484.087 2806.5,486C 2844.87,493.374 2873.37,514.207 2892,548.5C 2906.99,579.443 2913.49,612.11 2911.5,646.5 Z"/></g>
<g><path style="opacity:1" fill="#010101" d="M 3247.5,596.5 C 3253.9,637.225 3248.4,676.225 3231,713.5C 3223.38,727.123 3214.21,739.623 3203.5,751C 3169.09,780.25 3131.09,785.916 3089.5,768C 3072.53,759.028 3058.69,746.528 3048,730.5C 3031.42,705.918 3021.92,678.918 3019.5,649.5C 3018.29,637.679 3018.29,626.012 3019.5,614.5C 3021.07,606.295 3022.4,597.962 3023.5,589.5C 3023.41,586.848 3024.08,584.515 3025.5,582.5C 3027.61,578.498 3028.94,574.165 3029.5,569.5C 3040.31,537.023 3060.64,512.523 3090.5,496C 3138.75,476.602 3180.25,486.435 3215,525.5C 3231.14,546.757 3241.97,570.424 3247.5,596.5 Z"/></g>
<g><path style="opacity:1" fill="#85755d" d="M 2431.5,486.5 C 2433.14,490.21 2433.8,494.21 2433.5,498.5C 2431.86,494.79 2431.2,490.79 2431.5,486.5 Z"/></g>
<g><path style="opacity:1" fill="#6c5f4c" d="M 2433.5,498.5 C 2434.81,503.616 2435.47,508.949 2435.5,514.5C 2434.04,509.402 2433.38,504.069 2433.5,498.5 Z"/></g>
<g><path style="opacity:1" fill="#615544" d="M 2514.5,497.5 C 2516.18,501.545 2516.84,505.878 2516.5,510.5C 2514.95,506.433 2514.28,502.1 2514.5,497.5 Z"/></g>
<g><path style="opacity:1" fill="#7f7059" d="M 2437.5,535.5 C 2439.24,542.264 2440.24,549.264 2440.5,556.5C 2438.55,549.766 2437.55,542.766 2437.5,535.5 Z"/></g>
<g><path style="opacity:0.99" fill="#f2dcc4" d="M 2370.5,551.5 C 2374.67,558.523 2379.5,565.19 2385,571.5C 2402.71,586.771 2422.87,597.438 2445.5,603.5C 2445.71,610.095 2446.71,616.428 2448.5,622.5C 2448.5,623.833 2448.5,625.167 2448.5,626.5C 2449.2,635.008 2450.2,643.341 2451.5,651.5C 2451.78,659.396 2452.78,667.063 2454.5,674.5C 2455.48,677.625 2455.81,680.958 2455.5,684.5C 2455.36,689.414 2456.03,694.081 2457.5,698.5C 2461.55,728.081 2464.88,757.748 2467.5,787.5C 2467.44,792.731 2468.11,797.731 2469.5,802.5C 2471.08,811.056 2472.08,819.723 2472.5,828.5C 2472.7,836.737 2473.7,844.737 2475.5,852.5C 2476.67,867.838 2478.33,883.172 2480.5,898.5C 2480.55,905.766 2481.55,912.766 2483.5,919.5C 2483.5,920.833 2483.5,922.167 2483.5,923.5C 2483.36,928.414 2484.03,933.081 2485.5,937.5C 2486.33,943.813 2486.99,950.147 2487.5,956.5C 2488.11,966.41 2489.44,976.077 2491.5,985.5C 2493.2,1003.53 2495.2,1021.53 2497.5,1039.5C 2497.36,1044.41 2498.03,1049.08 2499.5,1053.5C 2508.07,1125.5 2516.4,1197.5 2524.5,1269.5C 2524.16,1274.12 2524.82,1278.46 2526.5,1282.5C 2527.42,1294.89 2528.76,1307.23 2530.5,1319.5C 2530.45,1325.39 2531.12,1331.06 2532.5,1336.5C 2532.36,1341.41 2533.03,1346.08 2534.5,1350.5C 2534.93,1354.82 2535.26,1359.16 2535.5,1363.5C 2535.87,1371.05 2536.87,1378.39 2538.5,1385.5C 2539.16,1389.47 2539.5,1393.47 2539.5,1397.5C 2540.15,1404.68 2541.15,1411.68 2542.5,1418.5C 2545.16,1439.13 2547.5,1459.8 2549.5,1480.5C 2549.44,1485.73 2550.11,1490.73 2551.5,1495.5C 2553.12,1508.45 2554.46,1521.45 2555.5,1534.5C 2555.2,1538.79 2555.86,1542.79 2557.5,1546.5C 2560.24,1572.74 2563.24,1599.07 2566.5,1625.5C 2566.2,1629.79 2566.86,1633.79 2568.5,1637.5C 2569.54,1649.88 2570.88,1662.21 2572.5,1674.5C 2572.53,1680.05 2573.19,1685.38 2574.5,1690.5C 2581.75,1750.14 2588.91,1809.8 2596,1869.5C 2599.79,1879.58 2606.29,1887.41 2615.5,1893C 2630.6,1899.15 2646.1,1903.98 2662,1907.5C 2663.98,1908.47 2665.48,1909.8 2666.5,1911.5C 2619.84,1904.8 2573.84,1894.97 2528.5,1882C 2527.38,1881.16 2526.71,1879.99 2526.5,1878.5C 2474.5,1436.15 2422.5,993.82 2370.5,551.5 Z"/></g>
<g><path style="opacity:0.999" fill="#f1dbc3" d="M 3300.5,552.5 C 3292.09,620.75 3284.43,689.083 3277.5,757.5C 3236.19,772.651 3208.35,801.318 3194,843.5C 3192.03,849.062 3190.53,854.729 3189.5,860.5C 3187.11,868.873 3185.77,877.54 3185.5,886.5C 3185.2,902.881 3185.53,919.214 3186.5,935.5C 3186.53,940.391 3187.2,945.057 3188.5,949.5C 3196.09,986.687 3214.42,1017.35 3243.5,1041.5C 3240.5,1068.17 3237.5,1094.83 3234.5,1121.5C 3233.18,1121.67 3232.01,1121.34 3231,1120.5C 3213.3,1083.91 3184.46,1062.24 3144.5,1055.5C 3141.35,1054.83 3138.02,1054.5 3134.5,1054.5C 3128.92,1054.37 3123.59,1055.03 3118.5,1056.5C 3099.92,1059.13 3083.58,1066.63 3069.5,1079C 3050.41,1096.26 3036.75,1117.09 3028.5,1141.5C 3026.39,1145.5 3025.06,1149.84 3024.5,1154.5C 3012.43,1204.34 3019.26,1251.34 3045,1295.5C 3057.81,1315.64 3074.97,1330.81 3096.5,1341C 3103.3,1342.65 3109.97,1344.49 3116.5,1346.5C 3117.26,1347.27 3118.26,1347.77 3119.5,1348C 3131.53,1348.81 3143.53,1348.47 3155.5,1347C 3158.37,1346.06 3161.04,1344.89 3163.5,1343.5C 3180.69,1337.57 3195.69,1328.07 3208.5,1315C 3209.45,1314.52 3210.45,1314.35 3211.5,1314.5C 3207.37,1343.03 3204.03,1371.7 3201.5,1400.5C 3199.37,1407.56 3197.03,1414.56 3194.5,1421.5C 3192.39,1425.5 3191.06,1429.84 3190.5,1434.5C 3187.91,1441.14 3186.57,1448.14 3186.5,1455.5C 3185.05,1477.5 3185.38,1499.5 3187.5,1521.5C 3181.1,1572.36 3174.77,1623.36 3168.5,1674.5C 3168.05,1675.46 3167.38,1676.29 3166.5,1677C 3145.54,1681.33 3124.54,1685.33 3103.5,1689C 3088.78,1690.18 3074.11,1691.68 3059.5,1693.5C 3044.99,1694.18 3030.66,1695.18 3016.5,1696.5C 2989,1697.66 2961.34,1697.83 2933.5,1697C 2905.93,1695.45 2878.59,1692.95 2851.5,1689.5C 2824.23,1684.52 2796.89,1679.85 2769.5,1675.5C 2766.48,1675.3 2763.48,1674.96 2760.5,1674.5C 2759.32,1672.93 2757.65,1672.1 2755.5,1672C 2752.85,1671.5 2750.19,1671.34 2747.5,1671.5C 2725.39,1667.22 2703.73,1661.56 2682.5,1654.5C 2677.5,1652.06 2672.17,1650.39 2666.5,1649.5C 2661.21,1647.96 2655.88,1646.63 2650.5,1645.5C 2649.98,1639.66 2649.31,1633.82 2648.5,1628C 2648.83,1626.5 2649.17,1625 2649.5,1623.5C 2673.21,1615.97 2692.71,1602.31 2708,1582.5C 2713.7,1573.76 2718.87,1564.76 2723.5,1555.5C 2724.15,1555.2 2724.82,1554.86 2725.5,1554.5C 2726.12,1551.56 2727.28,1548.9 2729,1546.5C 2729.7,1543.52 2730.2,1540.52 2730.5,1537.5C 2732.01,1530.44 2733.68,1523.44 2735.5,1516.5C 2737.26,1511.44 2738.42,1506.1 2739,1500.5C 2739.83,1487.33 2739.66,1474.33 2738.5,1461.5C 2735.87,1443.36 2731.37,1425.7 2725,1408.5C 2709.91,1374.57 2685.07,1351.23 2650.5,1338.5C 2646.65,1335.96 2642.31,1334.96 2637.5,1335.5C 2629.54,1334.6 2621.54,1334.26 2613.5,1334.5C 2610.4,1307.17 2607.4,1279.84 2604.5,1252.5C 2604.24,1245.26 2603.24,1238.26 2601.5,1231.5C 2601.5,1227.47 2601.16,1223.47 2600.5,1219.5C 2600.8,1215.21 2600.14,1211.21 2598.5,1207.5C 2597.91,1197.78 2596.91,1188.12 2595.5,1178.5C 2595.56,1173.27 2594.89,1168.27 2593.5,1163.5C 2589.61,1131.2 2585.95,1098.87 2582.5,1066.5C 2582.66,1063.12 2582.33,1059.78 2581.5,1056.5C 2581.75,1055.29 2582.41,1054.62 2583.5,1054.5C 2628.76,1071.06 2667.93,1061.73 2701,1026.5C 2711.79,1013.54 2720.29,999.204 2726.5,983.5C 2729.66,978.367 2731.66,972.7 2732.5,966.5C 2733.65,966.209 2734.32,965.376 2734.5,964C 2735.69,957.488 2736.69,950.988 2737.5,944.5C 2737.39,940.452 2737.73,936.452 2738.5,932.5C 2739.66,919.34 2739.83,906.006 2739,892.5C 2738.77,891.263 2738.27,890.263 2737.5,889.5C 2733.49,842.281 2712.16,805.447 2673.5,779C 2628.5,756.161 2587.83,761.994 2551.5,796.5C 2548.09,773.572 2545.09,750.572 2542.5,727.5C 2542.67,725.833 2542.83,724.167 2543,722.5C 2553.07,705.812 2559.9,687.812 2563.5,668.5C 2567.15,660.016 2568.49,651.016 2567.5,641.5C 2568.47,639.393 2568.8,637.059 2568.5,634.5C 2605.47,638.908 2642.47,642.908 2679.5,646.5C 2680.41,650.851 2681.41,655.184 2682.5,659.5C 2683.16,666.996 2684.33,674.33 2686,681.5C 2686.28,682.416 2686.78,683.082 2687.5,683.5C 2690.48,690.602 2692.98,697.935 2695,705.5C 2701.75,718.685 2709.75,731.019 2719,742.5C 2754.69,780.755 2796.19,788.588 2843.5,766C 2870.37,749.958 2889.03,727.125 2899.5,697.5C 2902.66,692.367 2904.66,686.7 2905.5,680.5C 2905.79,677.061 2906.45,673.728 2907.5,670.5C 2908.22,670.082 2908.72,669.416 2909,668.5C 2910.25,662.552 2911.09,656.552 2911.5,650.5C 2947.23,649.706 2982.9,647.706 3018.5,644.5C 3018.22,646.415 3018.55,648.081 3019.5,649.5C 3021.92,678.918 3031.42,705.918 3048,730.5C 3058.69,746.528 3072.53,759.028 3089.5,768C 3131.09,785.916 3169.09,780.25 3203.5,751C 3214.21,739.623 3223.38,727.123 3231,713.5C 3248.4,676.225 3253.9,637.225 3247.5,596.5C 3247.41,595.504 3247.75,594.671 3248.5,594C 3270.49,585.828 3287.82,571.995 3300.5,552.5 Z"/></g>
<g><path style="opacity:1" fill="#e7cba2" d="M 2827.5,654.5 C 2818.52,653.168 2809.19,652.502 2799.5,652.5C 2787.64,652.077 2775.98,652.077 2764.5,652.5C 2760.95,638.357 2760.62,624.024 2763.5,609.5C 2765.61,605.498 2766.94,601.165 2767.5,596.5C 2771.25,585.244 2777.92,576.078 2787.5,569C 2795.12,565.162 2802.12,566.162 2808.5,572C 2815.3,578.449 2820.47,585.949 2824,594.5C 2831.13,614.301 2832.29,634.301 2827.5,654.5 Z"/></g>
<g><path style="opacity:1" fill="#e6cba2" d="M 3168.5,619.5 C 3163.58,622.197 3158.25,624.03 3152.5,625C 3135.66,628.896 3118.66,631.73 3101.5,633.5C 3102.19,640.813 3102.52,648.146 3102.5,655.5C 3100.98,651.434 3100.15,647.101 3100,642.5C 3099.18,634.655 3099.34,626.989 3100.5,619.5C 3102.14,615.79 3102.8,611.79 3102.5,607.5C 3105.58,592.5 3112.92,580 3124.5,570C 3131.69,565.213 3138.69,565.546 3145.5,571C 3159.49,584.141 3167.15,600.307 3168.5,619.5 Z"/></g>
<g><path style="opacity:1" fill="#544a3b" d="M 3029.5,569.5 C 3028.94,574.165 3027.61,578.498 3025.5,582.5C 3026.06,577.835 3027.39,573.502 3029.5,569.5 Z"/></g>
<g><path style="opacity:1" fill="#695d4a" d="M 2442.5,576.5 C 2444.05,580.567 2444.72,584.9 2444.5,589.5C 2442.82,585.455 2442.16,581.122 2442.5,576.5 Z"/></g>
<g><path style="opacity:1" fill="#423a2f" d="M 2689.5,573.5 C 2688.94,579.941 2687.77,586.275 2686,592.5C 2685.8,594.32 2684.97,595.653 2683.5,596.5C 2684.43,588.445 2686.43,580.778 2689.5,573.5 Z"/></g>
<g><path style="opacity:1" fill="#796b55" d="M 2767.5,596.5 C 2766.94,601.165 2765.61,605.498 2763.5,609.5C 2764.06,604.835 2765.39,600.502 2767.5,596.5 Z"/></g>
<g><path style="opacity:1" fill="#5e5342" d="M 3023.5,589.5 C 3022.4,597.962 3021.07,606.295 3019.5,614.5C 3019.45,605.812 3020.78,597.479 3023.5,589.5 Z"/></g>
<g><path style="opacity:1" fill="#756a5e" d="M 2445.5,601.5 C 2447.32,608.251 2448.32,615.251 2448.5,622.5C 2446.71,616.428 2445.71,610.095 2445.5,603.5C 2445.5,602.833 2445.5,602.167 2445.5,601.5 Z"/></g>
<g><path style="opacity:1" fill="#504739" d="M 2683.5,598.5 C 2681.82,613.77 2681.16,629.103 2681.5,644.5C 2680.51,636.35 2680.17,628.017 2680.5,619.5C 2680.13,612.171 2681.13,605.171 2683.5,598.5 Z"/></g>
<g><path style="opacity:1" fill="#968670" d="M 2564.5,597.5 C 2565.22,597.918 2565.72,598.584 2566,599.5C 2567.26,613.47 2567.76,627.47 2567.5,641.5C 2568.49,651.016 2567.15,660.016 2563.5,668.5C 2567.12,644.891 2567.46,621.225 2564.5,597.5 Z"/></g>
<g><path style="opacity:1" fill="#80715a" d="M 3102.5,607.5 C 3102.8,611.79 3102.14,615.79 3100.5,619.5C 3100.2,615.21 3100.86,611.21 3102.5,607.5 Z"/></g>
<g><path style="opacity:1" fill="#f1dbc3" d="M 3168.5,619.5 C 3171.28,643.467 3166.11,665.467 3153,685.5C 3139.16,702.001 3126.16,701.334 3114,683.5C 3108.23,674.967 3104.4,665.634 3102.5,655.5C 3102.52,648.146 3102.19,640.813 3101.5,633.5C 3118.66,631.73 3135.66,628.896 3152.5,625C 3158.25,624.03 3163.58,622.197 3168.5,619.5 Z"/></g>
<g><path style="opacity:1" fill="#a29076" d="M 2680.5,619.5 C 2680.17,628.017 2680.51,636.35 2681.5,644.5C 2681.92,649.493 2682.25,654.493 2682.5,659.5C 2681.41,655.184 2680.41,650.851 2679.5,646.5C 2679.17,637.318 2679.51,628.318 2680.5,619.5 Z"/></g>
<g><path style="opacity:1" fill="#6e6459" d="M 2448.5,626.5 C 2450.7,634.554 2451.7,642.888 2451.5,651.5C 2450.2,643.341 2449.2,635.008 2448.5,626.5 Z"/></g>
<g><path style="opacity:1" fill="#f0dac2" d="M 2827.5,654.5 C 2824.88,671.917 2816.55,685.75 2802.5,696C 2796.48,698.373 2790.82,697.706 2785.5,694C 2772.8,682.944 2765.8,669.111 2764.5,652.5C 2775.98,652.077 2787.64,652.077 2799.5,652.5C 2809.19,652.502 2818.52,653.168 2827.5,654.5 Z"/></g>
<g><path style="opacity:1" fill="#a39382" d="M 2911.5,646.5 C 2911.5,647.833 2911.5,649.167 2911.5,650.5C 2911.09,656.552 2910.25,662.552 2909,668.5C 2908.72,669.416 2908.22,670.082 2907.5,670.5C 2908.64,662.335 2909.97,654.335 2911.5,646.5 Z"/></g>
<g><path style="opacity:1" fill="#73695d" d="M 2451.5,651.5 C 2453.39,658.916 2454.39,666.583 2454.5,674.5C 2452.78,667.063 2451.78,659.396 2451.5,651.5 Z"/></g>
<g><path style="opacity:1" fill="#47413a" d="M 2682.5,659.5 C 2683.22,659.918 2683.72,660.584 2684,661.5C 2685.65,668.674 2686.82,676.008 2687.5,683.5C 2686.78,683.082 2686.28,682.416 2686,681.5C 2684.33,674.33 2683.16,666.996 2682.5,659.5 Z"/></g>
<g><path style="opacity:1" fill="#8c8072" d="M 2905.5,680.5 C 2904.66,686.7 2902.66,692.367 2899.5,697.5C 2901.13,691.608 2903.13,685.941 2905.5,680.5 Z"/></g>
<g><path style="opacity:1" fill="#6f655a" d="M 2455.5,684.5 C 2456.97,688.919 2457.64,693.586 2457.5,698.5C 2456.03,694.081 2455.36,689.414 2455.5,684.5 Z"/></g>
<g><path style="opacity:1" fill="#010101" d="M 2988.5,1058.5 C 2977.3,1060.9 2965.97,1061.9 2954.5,1061.5C 2926.3,1059.15 2903.14,1047.15 2885,1025.5C 2871.89,1009.96 2861.89,992.623 2855,973.5C 2852.89,966.622 2851.39,959.622 2850.5,952.5C 2849.76,945.992 2848.76,939.659 2847.5,933.5C 2847.5,932.5 2847.5,931.5 2847.5,930.5C 2847.3,914.483 2847.63,898.483 2848.5,882.5C 2849.76,876.036 2851.09,869.703 2852.5,863.5C 2854.61,859.498 2855.94,855.165 2856.5,850.5C 2868.7,813.794 2892.37,787.294 2927.5,771C 2979.25,757.473 3020.42,772.64 3051,816.5C 3076.57,860.141 3083.9,906.807 3073,956.5C 3065.39,990.919 3048.22,1019.42 3021.5,1042C 3010.92,1048.62 2999.92,1054.12 2988.5,1058.5 Z"/></g>
<g><path style="opacity:0.989" fill="#f79319" d="M 3995.5,792.5 C 3996.22,792.918 3996.72,793.584 3997,794.5C 3997.67,825.5 3997.67,856.5 3997,887.5C 3978.09,895.526 3958.92,902.859 3939.5,909.5C 3939.33,955.501 3939.5,1001.5 3940,1047.5C 3959.16,1054.78 3978.16,1062.44 3997,1070.5C 3997.5,1102.83 3997.67,1135.16 3997.5,1167.5C 3990.11,1165.65 3982.78,1163.48 3975.5,1161C 3863.6,1117.22 3751.6,1073.72 3639.5,1030.5C 3638.5,997.173 3638.17,963.84 3638.5,930.5C 3758.01,885.665 3877.01,839.665 3995.5,792.5 Z M 3855.5,941.5 C 3856.5,941.5 3857.5,941.5 3858.5,941.5C 3858.83,966.509 3858.5,991.509 3857.5,1016.5C 3824.73,1004.3 3792.06,991.798 3759.5,979C 3791.46,966.185 3823.46,953.685 3855.5,941.5 Z"/></g>
<g><path style="opacity:1" fill="#84786b" d="M 2467.5,787.5 C 2468.89,792.269 2469.56,797.269 2469.5,802.5C 2468.11,797.731 2467.44,792.731 2467.5,787.5 Z"/></g>
<g><path style="opacity:1" fill="#746a5e" d="M 2472.5,828.5 C 2474.14,836.283 2475.14,844.283 2475.5,852.5C 2473.7,844.737 2472.7,836.737 2472.5,828.5 Z"/></g>
<g><path style="opacity:1" fill="#f0dac3" d="M 2934.5,948.5 C 2932.8,940.256 2930.8,932.256 2928.5,924.5C 2928.5,923.833 2928.5,923.167 2928.5,922.5C 2928.27,911.431 2928.94,900.431 2930.5,889.5C 2932.94,885.183 2934.61,880.517 2935.5,875.5C 2953.05,840.936 2970.88,840.936 2989,875.5C 3001.1,906.621 2998.43,936.287 2981,964.5C 2969.96,979.172 2957.96,980.172 2945,967.5C 2940.36,961.721 2936.86,955.388 2934.5,948.5 Z"/></g>
<g><path style="opacity:1" fill="#f0dac2" d="M 2652.5,882.5 C 2653.06,887.165 2654.39,891.498 2656.5,895.5C 2659.49,917.201 2656.33,937.867 2647,957.5C 2642.05,967.626 2634.21,974.292 2623.5,977.5C 2614.6,975.443 2607.76,970.443 2603,962.5C 2584.51,928.614 2585.17,895.281 2605,862.5C 2617.26,847.894 2629.59,847.894 2642,862.5C 2646.82,868.478 2650.32,875.144 2652.5,882.5 Z"/></g>
<g><path style="opacity:1" fill="#6a6056" d="M 2856.5,850.5 C 2855.94,855.165 2854.61,859.498 2852.5,863.5C 2853.06,858.835 2854.39,854.502 2856.5,850.5 Z"/></g>
<g><path style="opacity:1" fill="#574f46" d="M 3189.5,860.5 C 3188.62,869.357 3187.28,878.024 3185.5,886.5C 3185.77,877.54 3187.11,868.873 3189.5,860.5 Z"/></g>
<g><path style="opacity:1" fill="#6f655a" d="M 2652.5,882.5 C 2654.61,886.502 2655.94,890.835 2656.5,895.5C 2654.39,891.498 2653.06,887.165 2652.5,882.5 Z"/></g>
<g><path style="opacity:1" fill="#807468" d="M 2935.5,875.5 C 2934.61,880.517 2932.94,885.183 2930.5,889.5C 2931.08,884.362 2932.75,879.695 2935.5,875.5 Z"/></g>
<g><path style="opacity:1" fill="#83776a" d="M 2737.5,889.5 C 2738.27,890.263 2738.77,891.263 2739,892.5C 2739.83,906.006 2739.66,919.34 2738.5,932.5C 2738.72,918.145 2738.39,903.812 2737.5,889.5 Z"/></g>
<g><path style="opacity:1" fill="#5b534a" d="M 2848.5,882.5 C 2847.63,898.483 2847.3,914.483 2847.5,930.5C 2846.34,916.339 2846.17,902.006 2847,887.5C 2847.2,885.618 2847.7,883.952 2848.5,882.5 Z"/></g>
<g><path style="opacity:1" fill="#7c7164" d="M 2480.5,898.5 C 2482.32,905.251 2483.32,912.251 2483.5,919.5C 2481.55,912.766 2480.55,905.766 2480.5,898.5 Z"/></g>
<g><path style="opacity:1" fill="#887c6e" d="M 2930.5,889.5 C 2928.94,900.431 2928.27,911.431 2928.5,922.5C 2927.34,915.011 2927.18,907.345 2928,899.5C 2928.31,895.91 2929.14,892.577 2930.5,889.5 Z"/></g>
<g><path style="opacity:1" fill="#9d8f7f" d="M 2928.5,924.5 C 2930.8,932.256 2932.8,940.256 2934.5,948.5C 2932.69,946.615 2931.52,944.281 2931,941.5C 2929.92,935.861 2929.09,930.195 2928.5,924.5 Z"/></g>
<g><path style="opacity:1" fill="#7b7064" d="M 2483.5,923.5 C 2484.97,927.919 2485.64,932.586 2485.5,937.5C 2484.03,933.081 2483.36,928.414 2483.5,923.5 Z"/></g>
<g><path style="opacity:1" fill="#6f655a" d="M 2847.5,933.5 C 2848.76,939.659 2849.76,945.992 2850.5,952.5C 2849.78,952.082 2849.28,951.416 2849,950.5C 2848.1,944.865 2847.6,939.198 2847.5,933.5 Z"/></g>
<g><path style="opacity:1" fill="#574f47" d="M 3186.5,935.5 C 3187.97,939.919 3188.64,944.586 3188.5,949.5C 3187.2,945.057 3186.53,940.391 3186.5,935.5 Z"/></g>
<g><path style="opacity:1" fill="#ab9b8a" d="M 2737.5,944.5 C 2736.69,950.988 2735.69,957.488 2734.5,964C 2734.32,965.376 2733.65,966.209 2732.5,966.5C 2733.68,958.931 2735.34,951.598 2737.5,944.5 Z"/></g>
<g><path style="opacity:1" fill="#70665b" d="M 2487.5,956.5 C 2489.56,965.934 2490.89,975.6 2491.5,985.5C 2489.44,976.077 2488.11,966.41 2487.5,956.5 Z"/></g>
<g><path style="opacity:1" fill="#7c7064" d="M 2732.5,966.5 C 2731.66,972.7 2729.66,978.367 2726.5,983.5C 2728.13,977.608 2730.13,971.941 2732.5,966.5 Z"/></g>
<g><path style="opacity:0.986" fill="#000000" d="M 1731.5,1015.5 C 1804.17,1015.33 1876.83,1015.5 1949.5,1016C 2079.79,1026.07 2189.29,1078.57 2278,1173.5C 2382.43,1295.19 2419.43,1435.19 2389,1593.5C 2357.75,1722.02 2285.91,1820.52 2173.5,1889C 2106.76,1927.91 2034.76,1949.91 1957.5,1955C 1882.17,1955.5 1806.83,1955.67 1731.5,1955.5C 1731.5,1642.17 1731.5,1328.83 1731.5,1015.5 Z M 1950.5,1234.5 C 1982.5,1238.25 2012.83,1247.42 2041.5,1262C 2099.31,1294.15 2140.48,1340.98 2165,1402.5C 2191.46,1478.24 2184.46,1550.57 2144,1619.5C 2097.28,1687.14 2032.78,1726.14 1950.5,1736.5C 1950.5,1569.17 1950.5,1401.83 1950.5,1234.5 Z"/></g>
<g><path style="opacity:0.987" fill="#000000" d="M 45.5,1018.5 C 118.167,1018.5 190.833,1018.5 263.5,1018.5C 263.01,1219.52 263.51,1420.52 265,1621.5C 277.614,1681.78 313.781,1719.62 373.5,1735C 407.432,1742.12 439.432,1737.12 469.5,1720C 514.826,1693.28 538.659,1653.44 541,1600.5C 541.5,1406.5 541.667,1212.5 541.5,1018.5C 614.167,1018.5 686.833,1018.5 759.5,1018.5C 759.667,1217.83 759.5,1417.17 759,1616.5C 753.648,1713.36 715.814,1794.86 645.5,1861C 544.212,1948.57 428.546,1975.23 298.5,1941C 206.529,1911.68 136.695,1855.18 89,1771.5C 63.4689,1724.71 49.1355,1674.71 46,1621.5C 45.5,1420.5 45.3333,1219.5 45.5,1018.5 Z"/></g>
<g><path style="opacity:0.986" fill="#000000" d="M 1425.5,1020.5 C 1498.5,1020.5 1571.5,1020.5 1644.5,1020.5C 1644.5,1332.17 1644.5,1643.83 1644.5,1955.5C 1565.83,1955.67 1487.17,1955.5 1408.5,1955C 1306.5,1776.33 1205.33,1597.16 1105,1417.5C 1104.5,1596.83 1104.33,1776.17 1104.5,1955.5C 1031.5,1955.5 958.5,1955.5 885.5,1955.5C 885.5,1644.5 885.5,1333.5 885.5,1022.5C 964.836,1022.17 1044.17,1022.5 1123.5,1023.5C 1224.01,1201.87 1324.51,1380.2 1425,1558.5C 1425.5,1379.17 1425.67,1199.83 1425.5,1020.5 Z"/></g>
<g><path style="opacity:1" fill="#70665b" d="M 2497.5,1039.5 C 2498.97,1043.92 2499.64,1048.59 2499.5,1053.5C 2498.03,1049.08 2497.36,1044.41 2497.5,1039.5 Z"/></g>
<g><path style="opacity:1" fill="#675e53" d="M 2803.5,1055.5 C 2793.76,1055.24 2784.09,1055.91 2774.5,1057.5C 2777.2,1056.04 2780.2,1055.2 2783.5,1055C 2790.35,1054.18 2797.01,1054.35 2803.5,1055.5 Z"/></g>
<g><path style="opacity:1" fill="#5b5349" d="M 3144.5,1055.5 C 3135.82,1055.46 3127.15,1055.8 3118.5,1056.5C 3123.59,1055.03 3128.92,1054.37 3134.5,1054.5C 3138.02,1054.5 3141.35,1054.83 3144.5,1055.5 Z"/></g>
<g><path style="opacity:1" fill="#010101" d="M 2803.5,1055.5 C 2825.55,1057.36 2844.89,1065.53 2861.5,1080C 2883.02,1099.52 2897.52,1123.36 2905,1151.5C 2916.9,1197.13 2912.57,1241.13 2892,1283.5C 2879.26,1308.41 2860.42,1327.08 2835.5,1339.5C 2830.61,1340.8 2825.94,1342.46 2821.5,1344.5C 2815.65,1345.2 2809.98,1346.2 2804.5,1347.5C 2769.34,1349.83 2740.51,1337.5 2718,1310.5C 2707.25,1297 2698.59,1282.33 2692,1266.5C 2689.86,1260.57 2688.02,1254.57 2686.5,1248.5C 2685.25,1241.7 2683.92,1235.03 2682.5,1228.5C 2681.52,1225.04 2681.19,1221.37 2681.5,1217.5C 2681.31,1202.15 2681.64,1186.82 2682.5,1171.5C 2682.85,1167.74 2683.51,1164.08 2684.5,1160.5C 2686.4,1158.73 2687.56,1156.4 2688,1153.5C 2688.55,1149.83 2689.05,1146.16 2689.5,1142.5C 2700.77,1107.06 2722.77,1080.56 2755.5,1063C 2761.69,1060.57 2768.02,1058.73 2774.5,1057.5C 2784.09,1055.91 2793.76,1055.24 2803.5,1055.5 Z"/></g>
<g><path style="opacity:0.993" fill="#010101" d="M 3144.5,1055.5 C 3184.46,1062.24 3213.3,1083.91 3231,1120.5C 3232.01,1121.34 3233.18,1121.67 3234.5,1121.5C 3245.53,1146.98 3251.2,1173.64 3251.5,1201.5C 3252.4,1244.47 3239.07,1282.14 3211.5,1314.5C 3210.45,1314.35 3209.45,1314.52 3208.5,1315C 3195.69,1328.07 3180.69,1337.57 3163.5,1343.5C 3148.03,1347.37 3132.36,1348.37 3116.5,1346.5C 3109.97,1344.49 3103.3,1342.65 3096.5,1341C 3074.97,1330.81 3057.81,1315.64 3045,1295.5C 3019.26,1251.34 3012.43,1204.34 3024.5,1154.5C 3026.61,1150.5 3027.94,1146.16 3028.5,1141.5C 3036.75,1117.09 3050.41,1096.26 3069.5,1079C 3083.58,1066.63 3099.92,1059.13 3118.5,1056.5C 3127.15,1055.8 3135.82,1055.46 3144.5,1055.5 Z"/></g>
<g><path style="opacity:1" fill="#ac9c8b" d="M 2988.5,1058.5 C 2984.52,1060.47 2980.19,1061.64 2975.5,1062C 2968.32,1062.82 2961.32,1062.65 2954.5,1061.5C 2965.97,1061.9 2977.3,1060.9 2988.5,1058.5 Z"/></g>
<g><path style="opacity:1" fill="#62594f" d="M 2583.5,1054.5 C 2582.41,1054.62 2581.75,1055.29 2581.5,1056.5C 2582.33,1059.78 2582.66,1063.12 2582.5,1066.5C 2581.1,1062.41 2580.44,1058.08 2580.5,1053.5C 2581.79,1053.26 2582.79,1053.6 2583.5,1054.5 Z"/></g>
<g><path style="opacity:1" fill="#f0dac2" d="M 2762.5,1210.5 C 2762.39,1199.81 2762.72,1189.15 2763.5,1178.5C 2765.74,1173.77 2767.41,1168.77 2768.5,1163.5C 2772.28,1153.11 2778.61,1144.61 2787.5,1138C 2794.27,1134.3 2800.6,1134.97 2806.5,1140C 2816.75,1148.98 2823.58,1160.15 2827,1173.5C 2834.31,1200.9 2830.97,1226.9 2817,1251.5C 2811.94,1259.6 2804.78,1264.6 2795.5,1266.5C 2790.45,1266.31 2786.12,1264.47 2782.5,1261C 2773.63,1251.8 2767.8,1240.96 2765,1228.5C 2763.2,1222.63 2762.37,1216.63 2762.5,1210.5 Z"/></g>
<g><path style="opacity:1" fill="#f0dac3" d="M 3100.5,1212.5 C 3100.4,1202.15 3100.73,1191.81 3101.5,1181.5C 3101.5,1181.17 3101.5,1180.83 3101.5,1180.5C 3103.94,1175.5 3105.61,1170.17 3106.5,1164.5C 3110.31,1154.51 3116.31,1146.01 3124.5,1139C 3132.36,1133.98 3139.69,1134.64 3146.5,1141C 3158.42,1153.04 3165.58,1167.54 3168,1184.5C 3171.39,1209.22 3166.72,1232.22 3154,1253.5C 3139.47,1271.48 3125.8,1270.81 3113,1251.5C 3105.6,1239.59 3101.44,1226.59 3100.5,1212.5 Z"/></g>
<g><path style="opacity:1" fill="#61594f" d="M 3028.5,1141.5 C 3027.94,1146.16 3026.61,1150.5 3024.5,1154.5C 3025.06,1149.84 3026.39,1145.5 3028.5,1141.5 Z"/></g>
<g><path style="opacity:1" fill="#403b35" d="M 2689.5,1142.5 C 2689.05,1146.16 2688.55,1149.83 2688,1153.5C 2687.56,1156.4 2686.4,1158.73 2684.5,1160.5C 2685.25,1154.14 2686.92,1148.14 2689.5,1142.5 Z"/></g>
<g><path style="opacity:1" fill="#7a6f63" d="M 2768.5,1163.5 C 2767.41,1168.77 2765.74,1173.77 2763.5,1178.5C 2764.19,1173.08 2765.86,1168.08 2768.5,1163.5 Z"/></g>
<g><path style="opacity:1" fill="#8b7e71" d="M 3106.5,1164.5 C 3105.61,1170.17 3103.94,1175.5 3101.5,1180.5C 3102.39,1174.83 3104.06,1169.5 3106.5,1164.5 Z"/></g>
<g><path style="opacity:1" fill="#595148" d="M 2593.5,1163.5 C 2594.89,1168.27 2595.56,1173.27 2595.5,1178.5C 2593.97,1173.75 2593.3,1168.75 2593.5,1163.5 Z"/></g>
<g><path style="opacity:1" fill="#5d554b" d="M 2682.5,1171.5 C 2681.64,1186.82 2681.31,1202.15 2681.5,1217.5C 2680.34,1204.01 2680.17,1190.34 2681,1176.5C 2681.2,1174.62 2681.7,1172.95 2682.5,1171.5 Z"/></g>
<g><path style="opacity:1" fill="#756b5f" d="M 3101.5,1181.5 C 3100.73,1191.81 3100.4,1202.15 3100.5,1212.5C 3099.83,1208.68 3099.5,1204.68 3099.5,1200.5C 3099.36,1193.93 3100.03,1187.6 3101.5,1181.5 Z"/></g>
<g><path style="opacity:1" fill="#908374" d="M 2763.5,1178.5 C 2762.72,1189.15 2762.39,1199.81 2762.5,1210.5C 2761.83,1206.18 2761.5,1201.68 2761.5,1197C 2761.29,1190.59 2761.96,1184.42 2763.5,1178.5 Z"/></g>
<g><path style="opacity:1" fill="#695f55" d="M 2598.5,1207.5 C 2600.14,1211.21 2600.8,1215.21 2600.5,1219.5C 2598.86,1215.79 2598.2,1211.79 2598.5,1207.5 Z"/></g>
<g><path style="opacity:0.984" fill="#f79319" d="M 3638.5,1219.5 C 3666.07,1219.17 3693.57,1219.5 3721,1220.5C 3721.5,1276.17 3721.67,1331.83 3721.5,1387.5C 3739.17,1387.5 3756.83,1387.5 3774.5,1387.5C 3774.5,1334.17 3774.5,1280.83 3774.5,1227.5C 3802.07,1227.17 3829.57,1227.5 3857,1228.5C 3857.5,1281.5 3857.67,1334.5 3857.5,1387.5C 3903.84,1387.17 3950.17,1387.5 3996.5,1388.5C 3997.83,1419.36 3997.83,1450.2 3996.5,1481C 3877.17,1481.5 3757.83,1481.67 3638.5,1481.5C 3638.5,1394.17 3638.5,1306.83 3638.5,1219.5 Z"/></g>
<g><path style="opacity:1" fill="#86796c" d="M 2682.5,1228.5 C 2683.92,1235.03 2685.25,1241.7 2686.5,1248.5C 2683.52,1242.28 2682.19,1235.61 2682.5,1228.5 Z"/></g>
<g><path style="opacity:1" fill="#6a6156" d="M 2601.5,1231.5 C 2603.24,1238.26 2604.24,1245.26 2604.5,1252.5C 2602.55,1245.77 2601.55,1238.77 2601.5,1231.5 Z"/></g>
<g><path style="opacity:1" fill="#6c6258" d="M 2524.5,1269.5 C 2526.05,1273.57 2526.72,1277.9 2526.5,1282.5C 2524.82,1278.46 2524.16,1274.12 2524.5,1269.5 Z"/></g>
<g><path style="opacity:1" fill="#7e7366" d="M 2530.5,1319.5 C 2532.12,1324.92 2532.78,1330.58 2532.5,1336.5C 2531.12,1331.06 2530.45,1325.39 2530.5,1319.5 Z"/></g>
<g><path style="opacity:1" fill="#85796c" d="M 2948.5,1335.5 C 2958.32,1334.34 2968.32,1334.18 2978.5,1335C 2980.97,1335.04 2982.97,1335.87 2984.5,1337.5C 2972.59,1335.72 2960.59,1335.06 2948.5,1335.5 Z"/></g>
<g><path style="opacity:1" fill="#010101" d="M 2948.5,1335.5 C 2960.59,1335.06 2972.59,1335.72 2984.5,1337.5C 3019.96,1347.79 3045.46,1369.79 3061,1403.5C 3080.77,1449.03 3082.77,1495.36 3067,1542.5C 3055.54,1576.61 3034.04,1602.11 3002.5,1619C 2962.34,1635.49 2926.34,1629.32 2894.5,1600.5C 2890.83,1596.17 2886.83,1592.17 2882.5,1588.5C 2864.29,1564.41 2852.95,1537.41 2848.5,1507.5C 2847.18,1489.5 2847.18,1471.5 2848.5,1453.5C 2853.07,1415.53 2869.4,1383.7 2897.5,1358C 2912.35,1345.55 2929.35,1338.05 2948.5,1335.5 Z"/></g>
<g><path style="opacity:1" fill="#877b6d" d="M 2637.5,1335.5 C 2642.31,1334.96 2646.65,1335.96 2650.5,1338.5C 2646.01,1337.66 2641.68,1336.66 2637.5,1335.5 Z"/></g>
<g><path style="opacity:1" fill="#8c7f71" d="M 2835.5,1339.5 C 2831.37,1342.32 2826.7,1343.99 2821.5,1344.5C 2825.94,1342.46 2830.61,1340.8 2835.5,1339.5 Z"/></g>
<g><path style="opacity:1" fill="#897d6f" d="M 2821.5,1344.5 C 2821.08,1345.22 2820.42,1345.72 2819.5,1346C 2814.54,1346.91 2809.54,1347.41 2804.5,1347.5C 2809.98,1346.2 2815.65,1345.2 2821.5,1344.5 Z"/></g>
<g><path style="opacity:1" fill="#ac9d8c" d="M 3163.5,1343.5 C 3161.04,1344.89 3158.37,1346.06 3155.5,1347C 3143.53,1348.47 3131.53,1348.81 3119.5,1348C 3118.26,1347.77 3117.26,1347.27 3116.5,1346.5C 3132.36,1348.37 3148.03,1347.37 3163.5,1343.5 Z"/></g>
<g><path style="opacity:1" fill="#73695e" d="M 2532.5,1336.5 C 2533.97,1340.92 2534.64,1345.59 2534.5,1350.5C 2533.03,1346.08 2532.36,1341.41 2532.5,1336.5 Z"/></g>
<g><path style="opacity:1" fill="#857a6c" d="M 2535.5,1363.5 C 2537.56,1370.56 2538.56,1377.89 2538.5,1385.5C 2536.87,1378.39 2535.87,1371.05 2535.5,1363.5 Z"/></g>
<g><path style="opacity:1" fill="#675e54" d="M 2539.5,1397.5 C 2541.71,1404.18 2542.71,1411.18 2542.5,1418.5C 2541.15,1411.68 2540.15,1404.68 2539.5,1397.5 Z"/></g>
<g><path style="opacity:1" fill="#edd8c0" d="M 2655.5,1457.5 C 2657.16,1468.43 2657.83,1479.43 2657.5,1490.5C 2655.79,1506.47 2650.62,1521.14 2642,1534.5C 2640.98,1535.69 2639.81,1536.69 2638.5,1537.5C 2637.28,1530.15 2636.28,1522.82 2635.5,1515.5C 2635.32,1508.25 2634.32,1501.25 2632.5,1494.5C 2630.4,1468.04 2627.4,1441.7 2623.5,1415.5C 2636.59,1419.97 2645.75,1428.64 2651,1441.5C 2653.4,1446.55 2654.9,1451.88 2655.5,1457.5 Z"/></g>
<g><path style="opacity:1" fill="#f0dbc3" d="M 2932.5,1511.5 C 2929.68,1496.97 2928.85,1482.31 2930,1467.5C 2931.94,1457.74 2934.11,1448.07 2936.5,1438.5C 2953.39,1407.84 2970.56,1407.84 2988,1438.5C 3000.12,1468.6 2999.12,1498.26 2985,1527.5C 2980.75,1536.08 2974.25,1542.25 2965.5,1546C 2962.5,1546.67 2959.5,1546.67 2956.5,1546C 2943.69,1537.88 2935.69,1526.38 2932.5,1511.5 Z"/></g>
<g><path style="opacity:1" fill="#595148" d="M 3194.5,1421.5 C 3193.94,1426.16 3192.61,1430.5 3190.5,1434.5C 3191.06,1429.84 3192.39,1425.5 3194.5,1421.5 Z"/></g>
<g><path style="opacity:1" fill="#544d44" d="M 3190.5,1434.5 C 3190.25,1441.82 3188.91,1448.82 3186.5,1455.5C 3186.57,1448.14 3187.91,1441.14 3190.5,1434.5 Z"/></g>
<g><path style="opacity:1" fill="#b8a795" d="M 2936.5,1438.5 C 2934.11,1448.07 2931.94,1457.74 2930,1467.5C 2928.85,1482.31 2929.68,1496.97 2932.5,1511.5C 2929.3,1505.7 2927.8,1499.36 2928,1492.5C 2925.83,1475.21 2927.83,1458.54 2934,1442.5C 2934.61,1440.93 2935.44,1439.6 2936.5,1438.5 Z"/></g>
<g><path style="opacity:1" fill="#5a5249" d="M 2848.5,1453.5 C 2847.18,1471.5 2847.18,1489.5 2848.5,1507.5C 2847.69,1505.71 2847.19,1503.71 2847,1501.5C 2846.83,1494.67 2846.67,1487.83 2846.5,1481C 2846.28,1471.61 2846.94,1462.44 2848.5,1453.5 Z"/></g>
<g><path style="opacity:1" fill="#685f54" d="M 2655.5,1457.5 C 2656.89,1459.88 2657.72,1462.54 2658,1465.5C 2658.82,1474.01 2658.66,1482.34 2657.5,1490.5C 2657.83,1479.43 2657.16,1468.43 2655.5,1457.5 Z"/></g>
<g><path style="opacity:1" fill="#867a6d" d="M 2549.5,1480.5 C 2550.89,1485.27 2551.56,1490.27 2551.5,1495.5C 2550.11,1490.73 2549.44,1485.73 2549.5,1480.5 Z"/></g>
<g><path style="opacity:1" fill="#8b7e71" d="M 2738.5,1461.5 C 2739.66,1474.33 2739.83,1487.33 2739,1500.5C 2738.42,1506.1 2737.26,1511.44 2735.5,1516.5C 2738.15,1498.28 2739.15,1479.94 2738.5,1461.5 Z"/></g>
<g><path style="opacity:1" fill="#564f46" d="M 2632.5,1494.5 C 2634.32,1501.25 2635.32,1508.25 2635.5,1515.5C 2633.76,1508.74 2632.76,1501.74 2632.5,1494.5 Z"/></g>
<g><path style="opacity:1" fill="#8b7e70" d="M 2555.5,1534.5 C 2557.14,1538.21 2557.8,1542.21 2557.5,1546.5C 2555.86,1542.79 2555.2,1538.79 2555.5,1534.5 Z"/></g>
<g><path style="opacity:1" fill="#a69787" d="M 2730.5,1537.5 C 2730.2,1540.52 2729.7,1543.52 2729,1546.5C 2727.28,1548.9 2726.12,1551.56 2725.5,1554.5C 2724.82,1554.86 2724.15,1555.2 2723.5,1555.5C 2725.46,1549.27 2727.8,1543.27 2730.5,1537.5 Z"/></g>
<g><path style="opacity:0.986" fill="#f79319" d="M 3745.5,1570.5 C 3775.04,1569.05 3801.7,1576.88 3825.5,1594C 3850.36,1616.22 3864.2,1644.06 3867,1677.5C 3868.41,1710.81 3868.91,1744.15 3868.5,1777.5C 3911.17,1777.33 3953.83,1777.5 3996.5,1778C 3997.83,1809 3997.83,1840 3996.5,1871C 3877.26,1871.83 3758.1,1871.67 3639,1870.5C 3638.33,1808.83 3638.33,1747.17 3639,1685.5C 3640.15,1655.04 3650.15,1628.04 3669,1604.5C 3681.89,1590.8 3697.39,1581.3 3715.5,1576C 3725.51,1573.39 3735.51,1571.56 3745.5,1570.5 Z M 3745.5,1664.5 C 3769.55,1661.93 3783.05,1672.6 3786,1696.5C 3786.5,1723.5 3786.67,1750.5 3786.5,1777.5C 3764.83,1777.5 3743.17,1777.5 3721.5,1777.5C 3721.05,1747.8 3721.55,1718.13 3723,1688.5C 3726.29,1676.38 3733.79,1668.38 3745.5,1664.5 Z"/></g>
<g><path style="opacity:1" fill="#928476" d="M 2882.5,1588.5 C 2886.83,1592.17 2890.83,1596.17 2894.5,1600.5C 2889.5,1597.5 2885.5,1593.5 2882.5,1588.5 Z"/></g>
<g><path style="opacity:1" fill="#6d6358" d="M 2566.5,1625.5 C 2568.14,1629.21 2568.8,1633.21 2568.5,1637.5C 2566.86,1633.79 2566.2,1629.79 2566.5,1625.5 Z"/></g>
<g><path style="opacity:1" fill="#8c7f71" d="M 2666.5,1649.5 C 2672.17,1650.39 2677.5,1652.06 2682.5,1654.5C 2676.83,1653.61 2671.5,1651.94 2666.5,1649.5 Z"/></g>
<g><path style="opacity:1" fill="#8b7f71" d="M 2747.5,1671.5 C 2750.19,1671.34 2752.85,1671.5 2755.5,1672C 2757.65,1672.1 2759.32,1672.93 2760.5,1674.5C 2755.91,1674.12 2751.57,1673.12 2747.5,1671.5 Z"/></g>
<g><path style="opacity:1" fill="#7a6f63" d="M 2572.5,1674.5 C 2574.08,1679.58 2574.75,1684.92 2574.5,1690.5C 2573.19,1685.38 2572.53,1680.05 2572.5,1674.5 Z"/></g>
<g><path style="opacity:1" fill="#958779" d="M 2769.5,1675.5 C 2796.89,1679.85 2824.23,1684.52 2851.5,1689.5C 2823.65,1686.72 2796.31,1682.06 2769.5,1675.5 Z"/></g>
<g><path style="opacity:1" fill="#9d8f7f" d="M 3059.5,1693.5 C 3045.4,1695.61 3031.06,1696.61 3016.5,1696.5C 3030.66,1695.18 3044.99,1694.18 3059.5,1693.5 Z"/></g>
<g><path style="opacity:1" fill="#534b43" d="M 2677.5,1737.5 C 2672.55,1736.68 2667.71,1735.35 2663,1733.5C 2661.97,1733.84 2661.47,1734.5 2661.5,1735.5C 2660.6,1734.79 2660.26,1733.79 2660.5,1732.5C 2666.54,1733.18 2672.21,1734.85 2677.5,1737.5 Z"/></g>
<g><path style="opacity:0.999" fill="#f1dbc3" d="M 2677.5,1737.5 C 2704.99,1746.04 2732.99,1752.37 2761.5,1756.5C 2765.74,1758.96 2770.4,1759.96 2775.5,1759.5C 2783.69,1761.67 2792.02,1763 2800.5,1763.5C 2808.88,1765.84 2817.55,1767.18 2826.5,1767.5C 2836.65,1769.91 2846.98,1771.24 2857.5,1771.5C 2863.26,1773.06 2869.26,1773.72 2875.5,1773.5C 2876.17,1773.5 2876.83,1773.5 2877.5,1773.5C 2883.61,1775 2889.94,1775.66 2896.5,1775.5C 2897.83,1775.5 2899.17,1775.5 2900.5,1775.5C 2911.63,1776.96 2922.97,1777.63 2934.5,1777.5C 2964.66,1778.66 2995,1778.83 3025.5,1778C 3033.73,1777.94 3041.73,1777.11 3049.5,1775.5C 3065.87,1774.63 3082.21,1773.3 3098.5,1771.5C 3107.45,1771.17 3116.12,1769.84 3124.5,1767.5C 3125.17,1767.5 3125.83,1767.5 3126.5,1767.5C 3131.81,1766.89 3137.15,1766.39 3142.5,1766C 3147.5,1764.66 3152.5,1763.5 3157.5,1762.5C 3157.83,1762.5 3158.17,1762.5 3158.5,1762.5C 3155.24,1792.51 3151.91,1822.51 3148.5,1852.5C 3140.4,1854.97 3132.07,1856.8 3123.5,1858C 3103.01,1860.54 3082.68,1863.04 3062.5,1865.5C 3057.82,1865.33 3053.15,1865.5 3048.5,1866C 3046.94,1866.21 3045.61,1866.71 3044.5,1867.5C 3018.69,1868.88 2992.86,1869.54 2967,1869.5C 2953,1869.5 2939.16,1869.17 2925.5,1868.5C 2916.05,1866.86 2906.38,1866.19 2896.5,1866.5C 2895.5,1866.5 2894.5,1866.5 2893.5,1866.5C 2887.05,1865.06 2880.39,1864.4 2873.5,1864.5C 2868.44,1864.73 2863.44,1864.39 2858.5,1863.5C 2854.79,1861.86 2850.79,1861.2 2846.5,1861.5C 2843.1,1861.66 2839.76,1861.32 2836.5,1860.5C 2821.07,1857.43 2805.41,1855.1 2789.5,1853.5C 2786.63,1853.2 2783.96,1852.53 2781.5,1851.5C 2774.08,1849.4 2766.42,1848.07 2758.5,1847.5C 2729.32,1842.87 2700.65,1836.04 2672.5,1827C 2671.14,1818.59 2670.14,1810.09 2669.5,1801.5C 2669.08,1791.8 2668.25,1782.14 2667,1772.5C 2666.62,1771.94 2666.12,1771.61 2665.5,1771.5C 2664,1759.52 2662.67,1747.52 2661.5,1735.5C 2661.47,1734.5 2661.97,1733.84 2663,1733.5C 2667.71,1735.35 2672.55,1736.68 2677.5,1737.5 Z"/></g>
<g><path style="opacity:1" fill="#60574d" d="M 2761.5,1756.5 C 2766.28,1757.51 2770.95,1758.51 2775.5,1759.5C 2770.4,1759.96 2765.74,1758.96 2761.5,1756.5 Z"/></g>
<g><path style="opacity:1" fill="#3f3a33" d="M 2800.5,1763.5 C 2809.39,1764.2 2818.06,1765.53 2826.5,1767.5C 2817.55,1767.18 2808.88,1765.84 2800.5,1763.5 Z"/></g>
<g><path style="opacity:1" fill="#ab9c8b" d="M 3157.5,1762.5 C 3152.5,1763.5 3147.5,1764.66 3142.5,1766C 3137.15,1766.39 3131.81,1766.89 3126.5,1767.5C 3135.69,1765.54 3145.03,1763.54 3154.5,1761.5C 3155.73,1761.52 3156.73,1761.85 3157.5,1762.5 Z"/></g>
<g><path style="opacity:1" fill="#aa9b8a" d="M 3124.5,1767.5 C 3116.12,1769.84 3107.45,1771.17 3098.5,1771.5C 3106.97,1769.72 3115.63,1768.38 3124.5,1767.5 Z"/></g>
<g><path style="opacity:1" fill="#544c44" d="M 2857.5,1771.5 C 2863.73,1771.39 2869.73,1772.05 2875.5,1773.5C 2869.26,1773.72 2863.26,1773.06 2857.5,1771.5 Z"/></g>
<g><path style="opacity:1" fill="#574f47" d="M 2877.5,1773.5 C 2884.06,1773.34 2890.39,1774 2896.5,1775.5C 2889.94,1775.66 2883.61,1775 2877.5,1773.5 Z"/></g>
<g><path style="opacity:1" fill="#9b8d7d" d="M 2665.5,1771.5 C 2666.12,1771.61 2666.62,1771.94 2667,1772.5C 2668.25,1782.14 2669.08,1791.8 2669.5,1801.5C 2667.91,1791.67 2666.57,1781.67 2665.5,1771.5 Z"/></g>
<g><path style="opacity:1" fill="#3f3933" d="M 2900.5,1775.5 C 2912.03,1775.37 2923.37,1776.04 2934.5,1777.5C 2922.97,1777.63 2911.63,1776.96 2900.5,1775.5 Z"/></g>
<g><path style="opacity:1" fill="#49433b" d="M 3049.5,1775.5 C 3041.73,1777.11 3033.73,1777.94 3025.5,1778C 2995,1778.83 2964.66,1778.66 2934.5,1777.5C 2972.86,1777.94 3011.19,1777.27 3049.5,1775.5 Z"/></g>
<g><path style="opacity:1" fill="#a59685" d="M 2758.5,1847.5 C 2766.42,1848.07 2774.08,1849.4 2781.5,1851.5C 2773.51,1851.34 2765.84,1850 2758.5,1847.5 Z"/></g>
<g><path style="opacity:1" fill="#8a7e70" d="M 2789.5,1853.5 C 2805.41,1855.1 2821.07,1857.43 2836.5,1860.5C 2820.53,1859.34 2804.86,1857 2789.5,1853.5 Z"/></g>
<g><path style="opacity:1" fill="#7e7266" d="M 2846.5,1861.5 C 2850.79,1861.2 2854.79,1861.86 2858.5,1863.5C 2854.21,1863.8 2850.21,1863.14 2846.5,1861.5 Z"/></g>
<g><path style="opacity:1" fill="#8e8173" d="M 2873.5,1864.5 C 2880.39,1864.4 2887.05,1865.06 2893.5,1866.5C 2886.6,1866.71 2879.94,1866.04 2873.5,1864.5 Z"/></g>
<g><path style="opacity:1" fill="#574f47" d="M 3062.5,1865.5 C 3056.71,1866.81 3050.71,1867.48 3044.5,1867.5C 3045.61,1866.71 3046.94,1866.21 3048.5,1866C 3053.15,1865.5 3057.82,1865.33 3062.5,1865.5 Z"/></g>
<g><path style="opacity:1" fill="#938677" d="M 2896.5,1866.5 C 2906.38,1866.19 2916.05,1866.86 2925.5,1868.5C 2915.62,1868.75 2905.95,1868.08 2896.5,1866.5 Z"/></g>
<g><path style="opacity:0.986" fill="#000000" d="M 52.5,2033.5 C 287.501,2033.46 522.501,2033.8 757.5,2034.5C 749.893,2051.05 741.726,2067.38 733,2083.5C 611.04,2307.92 489.206,2532.42 367.5,2757C 495.833,2757.5 624.166,2757.67 752.5,2757.5C 752.5,2830.17 752.5,2902.83 752.5,2975.5C 502.264,2975.83 252.097,2975.5 2,2974.5C 41.2334,2899.37 81.5667,2824.71 123,2750.5C 126.41,2742.68 130.077,2735.01 134,2727.5C 220.323,2569.02 306.489,2410.52 392.5,2252C 279.5,2251.67 166.5,2251.33 53.5,2251C 52.5019,2178.57 52.1685,2106.07 52.5,2033.5 Z"/></g>
<g><path style="opacity:0.987" fill="#000000" d="M 780.5,2034.5 C 857.5,2034.5 934.5,2034.5 1011.5,2034.5C 1068.08,2205.67 1125.25,2376.67 1183,2547.5C 1222.8,2376.97 1261.97,2206.3 1300.5,2035.5C 1372.4,2034.17 1444.23,2034.17 1516,2035.5C 1560.72,2205.33 1606.05,2375 1652,2544.5C 1652.91,2543.67 1653.58,2542.67 1654,2541.5C 1703.19,2372.76 1752.69,2204.09 1802.5,2035.5C 1878.83,2034.5 1955.16,2034.17 2031.5,2034.5C 2030.97,2039.96 2029.8,2045.29 2028,2050.5C 1936.67,2358.81 1845.51,2667.14 1754.5,2975.5C 1682.5,2975.5 1610.5,2975.5 1538.5,2975.5C 1497.51,2821.23 1456.68,2666.89 1416,2512.5C 1380.67,2666.82 1345.5,2821.15 1310.5,2975.5C 1237.6,2975.83 1164.76,2975.5 1092,2974.5C 987.857,2661.24 884.023,2347.9 780.5,2034.5 Z"/></g>
<g><path style="opacity:0.987" fill="#000000" d="M 2311.5,2040.5 C 2380.5,2040.17 2449.5,2040.5 2518.5,2041.5C 2619.41,2352.06 2720.41,2662.56 2821.5,2973C 2821.36,2973.77 2821.02,2974.44 2820.5,2975C 2743.83,2975.83 2667.16,2975.67 2590.5,2974.5C 2578.69,2937.07 2566.69,2899.74 2554.5,2862.5C 2456.83,2862.33 2359.17,2862.5 2261.5,2863C 2248.94,2900.18 2236.27,2937.34 2223.5,2974.5C 2146.5,2975.5 2069.5,2975.83 1992.5,2975.5C 1995.36,2964.1 1998.53,2952.77 2002,2941.5C 2105.68,2641.29 2208.85,2340.96 2311.5,2040.5 Z M 2411.5,2425.5 C 2413.31,2427.39 2414.48,2429.72 2415,2432.5C 2438.17,2503.35 2461.34,2574.18 2484.5,2645C 2435.16,2645.83 2385.83,2645.67 2336.5,2644.5C 2361.71,2571.54 2386.71,2498.54 2411.5,2425.5 Z"/></g>
<g><path style="opacity:0.984" fill="#000000" d="M 3422.5,2040.5 C 3495.5,2040.5 3568.5,2040.5 3641.5,2040.5C 3641.67,2351.83 3641.5,2663.17 3641,2974.5C 3562.23,2975.83 3483.4,2975.83 3404.5,2974.5C 3303.41,2796 3202.58,2617.33 3102,2438.5C 3101.67,2617.17 3101.33,2795.83 3101,2974.5C 3027.9,2975.5 2954.74,2975.83 2881.5,2975.5C 2881.33,2664.83 2881.5,2354.17 2882,2043.5C 2961.1,2042.34 3040.26,2042.17 3119.5,2043C 3220.98,2221.46 3321.81,2400.29 3422,2579.5C 3422.5,2399.83 3422.67,2220.17 3422.5,2040.5 Z"/></g>
<g><path style="opacity:0.987" fill="#000000" d="M 53.5,3052.5 C 288.17,3053.02 522.837,3053.68 757.5,3054.5C 757.657,3055.87 757.49,3057.21 757,3058.5C 627.167,3298.17 497.333,3537.83 367.5,3777.5C 495.832,3778.5 624.165,3778.83 752.5,3778.5C 752.5,3850.83 752.5,3923.17 752.5,3995.5C 502.027,3996 251.694,3995.5 1.5,3994C 131.656,3753.52 261.656,3513.02 391.5,3272.5C 278.833,3271.83 166.167,3271.17 53.5,3270.5C 52.1669,3197.8 52.1669,3125.14 53.5,3052.5 Z"/></g>
<g><path style="opacity:0.985" fill="#000000" d="M 1616.5,3057.5 C 1702.4,3057.09 1783.07,3077.25 1858.5,3118C 1895.41,3138.9 1928.91,3164.4 1959,3194.5C 1959.67,3195.83 1959.67,3197.17 1959,3198.5C 1908.45,3249.05 1857.95,3299.55 1807.5,3350C 1806.17,3350.67 1804.83,3350.67 1803.5,3350C 1748.16,3296.55 1681.83,3272.55 1604.5,3278C 1521.71,3286.45 1457.21,3324.95 1411,3393.5C 1366.92,3465.24 1359.58,3540.57 1389,3619.5C 1426.22,3704.71 1490.39,3756.88 1581.5,3776C 1651.01,3786.84 1714.51,3772.34 1772,3732.5C 1772.5,3717.84 1772.67,3703.17 1772.5,3688.5C 1709.83,3688.83 1647.16,3688.5 1584.5,3687.5C 1583.17,3615.3 1583.17,3543.14 1584.5,3471C 1720.5,3470.5 1856.5,3470.33 1992.5,3470.5C 1992.67,3645.17 1992.5,3819.83 1992,3994.5C 1918.9,3995.5 1845.74,3995.83 1772.5,3995.5C 1772.67,3987.83 1772.5,3980.16 1772,3972.5C 1737.26,3984.98 1701.43,3992.48 1664.5,3995C 1534.81,4003.54 1419.81,3967.21 1319.5,3886C 1210.95,3791.71 1155.62,3672.21 1153.5,3527.5C 1154.52,3414.25 1190.35,3313.92 1261,3226.5C 1354.77,3119.04 1473.27,3062.71 1616.5,3057.5 Z"/></g>
<g><path style="opacity:0.984" fill="#000000" d="M 882.5,3059.5 C 955.5,3059.5 1028.5,3059.5 1101.5,3059.5C 1101.67,3371.17 1101.5,3682.83 1101,3994.5C 1064.74,3995.17 1028.4,3995.5 992,3995.5C 955.596,3995.5 919.263,3995.17 883,3994.5C 882.5,3682.83 882.333,3371.17 882.5,3059.5 Z"/></g>
<g><path style="opacity:0.994" fill="#f7931a" d="M 2310.5,3473.5 C 2394.61,3469.47 2466.11,3497.13 2525,3556.5C 2563.32,3599.15 2585.98,3649.15 2593,3706.5C 2601.14,3807.01 2565.64,3887.84 2486.5,3949C 2417.87,3996.59 2342.87,4010.26 2261.5,3990C 2189.78,3968.59 2135.62,3925.43 2099,3860.5C 2062.51,3786.81 2058.84,3711.48 2088,3634.5C 2132.05,3539.38 2206.22,3485.71 2310.5,3473.5 Z"/></g>
<g><path style="opacity:1" fill="#fffdfc" d="M 2400.5,3587.5 C 2397.07,3597.53 2394.41,3607.87 2392.5,3618.5C 2390.71,3623.01 2389.87,3627.67 2390,3632.5C 2396.55,3635.91 2403.38,3638.74 2410.5,3641C 2449.29,3660.02 2457.79,3688.19 2436,3725.5C 2429.16,3732.83 2420.99,3738 2411.5,3741C 2424.56,3747.89 2433.89,3758.05 2439.5,3771.5C 2440.05,3778.15 2440.39,3784.82 2440.5,3791.5C 2439.84,3794.46 2439.51,3797.46 2439.5,3800.5C 2437.46,3804.94 2435.8,3809.61 2434.5,3814.5C 2425.75,3837.91 2408.75,3850.74 2383.5,3853C 2379.67,3853.17 2375.83,3853.33 2372,3853.5C 2359.72,3852.99 2347.55,3851.82 2335.5,3850C 2332.09,3862.78 2328.59,3875.62 2325,3888.5C 2324.5,3891.15 2324.34,3893.81 2324.5,3896.5C 2316.81,3895.22 2309.15,3893.72 2301.5,3892C 2296.06,3891.55 2294.23,3888.72 2296,3883.5C 2299.01,3869.78 2302.18,3856.11 2305.5,3842.5C 2297.88,3840.71 2290.22,3839.04 2282.5,3837.5C 2279.22,3852.58 2275.55,3867.58 2271.5,3882.5C 2269.24,3883.65 2266.9,3883.81 2264.5,3883C 2258.25,3881.08 2251.92,3879.42 2245.5,3878C 2243.51,3875.53 2243.01,3872.7 2244,3869.5C 2247.67,3856.17 2251,3842.83 2254,3829.5C 2235.46,3824.74 2216.96,3819.74 2198.5,3814.5C 2198.17,3813.83 2197.83,3813.17 2197.5,3812.5C 2201.83,3801.84 2206.66,3791.51 2212,3781.5C 2219.44,3783.74 2226.94,3785.74 2234.5,3787.5C 2239.46,3787.37 2242.96,3785.04 2245,3780.5C 2254.35,3743.43 2263.52,3706.43 2272.5,3669.5C 2273.31,3668.57 2274.15,3667.57 2275,3666.5C 2275.12,3663.63 2275.78,3660.96 2277,3658.5C 2277.82,3653.32 2277.65,3648.32 2276.5,3643.5C 2274.21,3639.51 2270.88,3636.68 2266.5,3635C 2259.08,3633.48 2251.75,3631.65 2244.5,3629.5C 2243.36,3627.58 2243.19,3625.58 2244,3623.5C 2246,3615.5 2248,3607.5 2250,3599.5C 2253.46,3598.58 2256.96,3598.74 2260.5,3600C 2276.38,3604.47 2292.38,3608.3 2308.5,3611.5C 2312.41,3596.3 2316.08,3580.97 2319.5,3565.5C 2329.13,3567.66 2338.8,3569.66 2348.5,3571.5C 2345.35,3586.5 2342.02,3601.5 2338.5,3616.5C 2338.78,3618.78 2340.11,3619.95 2342.5,3620C 2348.45,3622.05 2354.45,3622.88 2360.5,3622.5C 2364.17,3607.81 2367.84,3593.14 2371.5,3578.5C 2380.81,3580.66 2390.15,3582.83 2399.5,3585C 2400.25,3585.67 2400.59,3586.5 2400.5,3587.5 Z"/></g>
<g><path style="opacity:1" fill="#fcb76a" d="M 2400.5,3587.5 C 2399.68,3598.51 2397.01,3608.85 2392.5,3618.5C 2394.41,3607.87 2397.07,3597.53 2400.5,3587.5 Z"/></g>
<g><path style="opacity:1" fill="#f7941e" d="M 2316.5,3708.5 C 2317.12,3708.39 2317.62,3708.06 2318,3707.5C 2318.12,3704.63 2318.78,3701.96 2320,3699.5C 2321.45,3693.93 2322.29,3688.26 2322.5,3682.5C 2324.83,3672.52 2327.16,3662.52 2329.5,3652.5C 2346.33,3655.54 2362.33,3661.04 2377.5,3669C 2390.73,3677.44 2394.23,3688.94 2388,3703.5C 2383.73,3711.09 2377.23,3715.59 2368.5,3717C 2351.12,3718.99 2334.29,3716.82 2318,3710.5C 2316.97,3710.16 2316.47,3709.5 2316.5,3708.5 Z"/></g>
<g><path style="opacity:1" fill="#ffddb7" d="M 2276.5,3643.5 C 2277.65,3648.32 2277.82,3653.32 2277,3658.5C 2275.78,3660.96 2275.12,3663.63 2275,3666.5C 2274.15,3667.57 2273.31,3668.57 2272.5,3669.5C 2273.35,3664.11 2274.51,3658.78 2276,3653.5C 2276.5,3650.18 2276.67,3646.85 2276.5,3643.5 Z"/></g>
<g><path style="opacity:1" fill="#fbb260" d="M 2322.5,3682.5 C 2322.29,3688.26 2321.45,3693.93 2320,3699.5C 2318.78,3701.96 2318.12,3704.63 2318,3707.5C 2317.62,3708.06 2317.12,3708.39 2316.5,3708.5C 2317.59,3699.49 2319.59,3690.83 2322.5,3682.5 Z"/></g>
<g><path style="opacity:1" fill="#f7941d" d="M 2307.5,3739.5 C 2326.28,3742.48 2344.28,3747.98 2361.5,3756C 2368.26,3759.76 2374.09,3764.59 2379,3770.5C 2385.78,3793.11 2377.62,3806.61 2354.5,3811C 2343.73,3811.93 2333.07,3811.26 2322.5,3809C 2313.2,3806.64 2303.87,3804.47 2294.5,3802.5C 2293.36,3800.58 2293.19,3798.58 2294,3796.5C 2299.1,3777.6 2303.6,3758.6 2307.5,3739.5 Z"/></g>
<g><path style="opacity:1" fill="#fcd09d" d="M 2439.5,3771.5 C 2441,3775.22 2441.66,3779.22 2441.5,3783.5C 2441.5,3786.36 2441.16,3789.02 2440.5,3791.5C 2440.39,3784.82 2440.05,3778.15 2439.5,3771.5 Z"/></g>
<g><path style="opacity:1" fill="#fcc98e" d="M 2439.5,3800.5 C 2438.99,3805.7 2437.32,3810.37 2434.5,3814.5C 2435.8,3809.61 2437.46,3804.94 2439.5,3800.5 Z"/></g>
</svg>
